<svg width="1385" height="802" viewBox="0 0 1385 802" fill="none" xmlns="http://www.w3.org/2000/svg">
<path d="M61.9169 423.104C5.75651 228.373 134.559 -48.156 442.831 9.83574C862.857 88.8503 625.963 802.187 442.831 760.066C259.699 717.946 511.201 55.6188 875.634 228.984C1275.47 419.193 879.296 833.93 819.473 760.066C759.65 686.203 1249.23 672.874 1245.56 760.066C1242.08 842.768 1165.59 777.769 1133.24 735.038" stroke="white" stroke-width="3"/>
<path fill-rule="evenodd" clip-rule="evenodd" d="M1287.73 322.967C1302.35 317.943 1312.47 306.22 1312.47 290.589C1312.47 235.88 1239.37 223.599 1243.31 283.332C1245 307.894 1265.24 331.341 1287.73 322.967ZM1241.98 494.103C1287.49 471.475 1340.09 445.32 1346.2 456.388C1354.64 469.786 1234.88 515.563 1212.38 521.703C1173.59 532.868 1109.84 561.907 1119.96 599.31C1129.2 633.445 1144.29 654.78 1181.4 654.78C1188.37 654.641 1196.76 654.734 1206.08 654.838C1271.93 655.568 1385 656.822 1385 580.878C1381.41 544.551 1352.95 507.747 1323.15 533.985C1311.99 543.777 1298.79 564.99 1287.82 582.631C1275.02 603.206 1265.24 618.923 1265.24 605.999C1265.72 564.924 1322.24 512.138 1356.03 480.588C1361.27 475.69 1365.97 471.304 1369.82 467.553C1394.56 442.99 1376 421.777 1345.64 431.825C1339.91 434.056 1332.97 437.202 1325.46 440.602C1295.39 454.223 1256.27 471.939 1249.97 451.391C1246.47 437.49 1263 428.22 1281.15 418.039C1303.82 405.323 1329.02 391.188 1320.9 364.836C1315.84 336.923 1231.75 315.284 1235.69 345.429C1243.56 382.273 1243.31 402.321 1225.69 431.825C1224.22 433.435 1222.76 435.042 1221.3 436.644C1177.9 484.271 1137.88 528.184 1181.4 521.703C1192.95 518.484 1216.34 506.854 1241.98 494.103ZM881.172 479.209C851.179 489.543 815.643 496.376 777.465 501.425C668.309 515.71 668.31 536.851 672.31 543.136C675.458 549.144 687.202 548.133 702.163 546.844C717.081 545.56 735.197 544 751.176 548.85C791.982 561.361 810.39 609.147 812.062 649.201C812.2 652.512 809.502 655.193 806.188 655.193H638.619C635.675 655.193 633.158 653.082 632.777 650.162C628.479 617.183 630.31 557.477 677.239 516.608C681.993 512.467 678.85 503.248 672.56 503.671L607.814 508.026C603.89 508.29 600.777 504.771 601.519 500.909L632.514 339.452C633.056 336.626 635.529 334.583 638.407 334.583H734.458C738.955 334.583 741.863 339.353 739.897 343.397C717.501 389.445 704.904 437.572 696.311 482.428C696.012 483.987 697.209 485.427 698.796 485.427C700.009 485.427 701.052 484.564 701.288 483.375C721.551 381.366 771.272 291.159 870.618 291.159C933.771 291.159 970.074 326.056 972.241 372.431C974.252 398.478 967.814 419.995 960.813 443.396L960.812 443.397L960.812 443.399L960.812 443.4C957.164 455.593 953.363 468.297 950.524 482.419C950.211 483.975 951.407 485.427 952.994 485.427C954.207 485.427 955.249 484.564 955.485 483.375C975.749 381.366 1025.47 291.159 1124.82 291.159C1189.97 291.159 1226.54 328.298 1226.54 376.865C1226.54 458.572 1139.67 487.141 1031.66 501.425C922.507 515.71 922.507 536.851 926.508 543.136C929.655 549.144 941.4 548.133 956.36 546.844C971.278 545.56 989.394 544 1005.37 548.85C1046.18 561.361 1063.64 609.147 1065.22 649.201C1065.35 652.512 1062.65 655.193 1059.34 655.193H892.755C889.811 655.193 887.294 653.082 886.914 650.162C882.545 616.611 884.562 555.398 933.917 514.499C938.606 510.613 936.026 501.997 929.937 501.997H892.179C889.497 501.997 887.14 500.217 886.407 497.636L881.172 479.209ZM775.75 399.149C791.181 408.862 779.751 448.859 719.744 485.998C715.866 487.937 710.742 484.889 711.607 480.641C724.621 416.662 759.061 388.384 775.75 399.149ZM63.7204 534.822C63.437 535.559 63.7582 536.403 64.4643 536.756C65.1525 537.1 65.9769 536.902 66.4165 536.27C111.919 470.901 211.586 383.616 274.692 429.052C274.924 429.219 275.192 429.385 275.443 429.52C316.164 451.368 306.152 486.559 295.385 524.401C284.039 564.279 271.856 607.101 317.322 640.355C318.716 641.374 319.719 642.968 319.913 644.684L320.29 648.011C320.624 650.967 318.741 653.706 315.81 654.22C295.104 657.853 235.391 662.203 193.908 641.984C148.611 619.987 170.723 574.366 189.31 536.017C203.553 506.629 215.727 481.512 193.908 474.571C158.378 463.294 70.741 563.302 29.445 648.852C28.4344 650.946 26.333 652.269 24.0083 652.269H6.92035C2.79349 652.269 -0.0720602 648.117 1.30028 644.225C22.0398 585.406 41.1336 541.146 57.7022 502.739C87.6919 433.221 109.409 382.88 117.638 300.1C117.945 297.011 120.539 294.587 123.643 294.587H292.829C295.637 294.587 298.114 296.628 298.564 299.399C306.972 351.118 258.087 378.202 201.786 409.396C148.082 439.151 87.6304 472.644 63.7204 534.822ZM389.731 652.269C334.867 652.269 297.72 623.129 297.72 579.133C297.72 499.711 391.445 475.713 508.601 455.144C573.752 443.145 589.753 421.433 585.182 410.005C580.61 398.577 559.464 400.863 537.176 412.291C533.429 414.199 529.009 416.579 524.022 419.265L524.019 419.267L524.018 419.267C488.686 438.296 424.885 472.656 370.3 463.143C279.146 448.992 297.368 334.459 347.171 297.327C348.015 296.698 349.157 296.711 350.014 297.323C351.321 298.256 351.493 300.288 350.823 301.747C347.705 308.531 347.514 324.299 374.3 324.299C406.098 324.299 431.608 316.697 456.822 309.184C481.456 301.843 505.807 294.587 535.462 294.587C581.753 294.587 610.327 319.156 610.327 365.438C610.327 406.017 596.31 476.46 582.783 507.272C580.551 512.356 584.939 520.827 590.491 520.827H633.848C637.988 520.827 640.88 524.919 639.478 528.814C638.951 530.277 638.421 531.746 637.889 533.221C624.983 568.977 610.827 608.2 616.573 647.93C617.117 651.694 614.281 655.193 610.477 655.193H518.256C513.808 655.193 510.881 650.517 512.695 646.456C533.382 600.152 555.39 519.277 562.411 477.524C562.674 475.959 561.458 474.571 559.871 474.571C558.638 474.571 557.578 475.446 557.332 476.655C538.155 571.185 487.879 652.269 389.731 652.269ZM520.031 491.141C503.458 506.568 473.74 539.708 489.171 553.992C504.589 567.812 535.339 536.139 547.373 480.133C548.455 475.098 543.088 471.656 539.014 474.807C533.42 479.132 526.817 484.679 520.031 491.141ZM973.941 485.998C1033.95 448.859 1045.38 408.862 1029.95 399.149C1013.26 388.384 978.818 416.662 965.804 480.641C964.94 484.889 970.063 487.937 973.941 485.998Z" fill="#7D5199"/>
<path d="M1133.24 735.039C1165.59 777.77 1242.08 842.769 1245.56 760.067C1249.23 672.874 759.65 686.204 819.473 760.067C852.84 801.265 990.845 690.462 1037 551.396M505.107 338.564C472.178 379.317 444.918 425.512 424.456 472.039" stroke="white" stroke-width="3"/>
</svg>
