<svg width="18" height="19" viewBox="0 0 18 19" fill="none" xmlns="http://www.w3.org/2000/svg">
<path d="M3.54616 5.1629C3.33094 5.10612 3.15206 4.95667 3.0579 4.75499C2.96374 4.5533 2.96402 4.32021 3.05868 4.11875L4.71944 0.584365C4.8432 0.320979 5.10815 0.152962 5.39916 0.153321C5.69018 0.153681 5.95471 0.322354 6.07782 0.586045L6.81045 2.15528C6.83664 2.14499 6.86368 2.13606 6.89151 2.1286C11.2389 0.963733 15.7074 3.54364 16.8723 7.89099C18.0371 12.2383 15.4572 16.7069 11.1099 17.8717C6.76253 19.0366 2.29399 16.4567 1.12912 12.1094C0.758702 10.7269 0.767035 9.33003 1.09147 8.0313C1.19186 7.62943 1.59901 7.38504 2.00088 7.48543C2.40274 7.58581 2.64714 7.99297 2.54675 8.39484C2.28245 9.45283 2.27517 10.5909 2.57801 11.7211C3.52847 15.2683 7.1745 17.3733 10.7216 16.4229C14.2688 15.4724 16.3738 11.8264 15.4234 8.27922C14.4885 4.79007 10.9454 2.69626 7.4538 3.53331L8.193 5.11661C8.3161 5.3803 8.27556 5.69141 8.08898 5.91474C7.9024 6.13807 7.60347 6.23331 7.32209 6.15907L3.54616 5.1629Z" fill="#D8A8B2"/>
</svg>
