<svg width="103" height="102" viewBox="0 0 103 102" fill="none" xmlns="http://www.w3.org/2000/svg">
<path d="M94.3227 61.1593C93.5914 60.9984 92.9778 60.693 92.4819 60.2431C91.9967 59.8063 91.6414 59.2805 91.416 58.6658C91.2026 58.0523 91.1315 57.4054 91.2025 56.7251C91.2823 55.9612 91.5421 55.2645 91.9819 54.6348C92.4218 54.0051 93.0096 53.5175 93.7455 53.1721C94.492 52.8399 95.3427 52.7236 96.2975 52.8234C97.2523 52.9231 98.0546 53.2121 98.7045 53.6902C99.365 54.1815 99.8513 54.7812 100.163 55.4895C100.476 56.1978 100.592 56.9338 100.512 57.6977C100.441 58.378 100.232 58.9896 99.8858 59.5325C99.5383 60.0874 99.082 60.5284 98.517 60.8555C97.9507 61.1945 97.2985 61.3737 96.5605 61.3931L96.697 60.0862C97.3985 59.9544 97.9664 59.6578 98.4007 59.1964C98.8469 58.7363 99.1031 58.1899 99.1692 57.5574C99.2228 57.0442 99.142 56.5471 98.9268 56.0661C98.7116 55.5852 98.3677 55.1812 97.8951 54.8544C97.4345 54.5287 96.8521 54.3291 96.1479 54.2556C95.4557 54.1833 94.8446 54.2582 94.3146 54.4803C93.7966 54.7037 93.3832 55.0225 93.0745 55.4366C92.7765 55.864 92.6001 56.3402 92.5452 56.8654C92.4692 57.5934 92.5984 58.2041 92.9329 58.6976C93.2782 59.2042 93.7863 59.5951 94.4573 59.8703L94.3227 61.1593Z" fill="#D8A8B2"/>
<path d="M102.641 65.251L102.275 66.6437L90.0885 63.4404L90.4546 62.0477L102.641 65.251Z" fill="#D8A8B2"/>
<path d="M100.75 71.261L99.1084 70.666L99.7463 68.906L101.388 69.501L100.75 71.261ZM97.9296 68.4774L97.439 69.8312L88.9776 66.7646L89.4682 65.4108L97.9296 68.4774Z" fill="#D8A8B2"/>
<path d="M87.7006 76.8825C87.0882 76.4518 86.64 75.9332 86.3562 75.3267C86.0772 74.7365 85.9524 74.1143 85.9818 73.4602C86.0218 72.8119 86.2058 72.1877 86.534 71.5875C86.9025 70.9137 87.4111 70.3712 88.0599 69.9601C88.7087 69.549 89.4392 69.3261 90.2514 69.2915C91.0683 69.2732 91.8979 69.4944 92.7402 69.955C93.5825 70.4156 94.2111 70.9918 94.626 71.6837C95.0457 72.3919 95.2628 73.1329 95.2773 73.9068C95.2918 74.6806 95.1148 75.4044 94.7464 76.0783C94.4182 76.6784 93.9896 77.1621 93.4605 77.5293C92.9257 77.907 92.3346 78.1377 91.6871 78.2213C91.0338 78.3154 90.3631 78.229 89.6748 77.962L90.3052 76.8091C91.0032 76.9583 91.6416 76.9039 92.2203 76.6459C92.8095 76.3937 93.2567 75.9886 93.5619 75.4306C93.8094 74.9778 93.9268 74.4881 93.914 73.9613C93.9011 73.4346 93.7398 72.9292 93.43 72.4453C93.1307 71.9671 92.6705 71.5581 92.0493 71.2184C91.4387 70.8845 90.846 70.7177 90.2714 70.7181C89.7073 70.7242 89.2029 70.8587 88.7583 71.1216C88.3184 71.4008 87.9718 71.772 87.7185 72.2352C87.3673 72.8775 87.2507 73.4908 87.3689 74.0751C87.4918 74.6757 87.8096 75.2325 88.3224 75.7454L87.7006 76.8825Z" fill="#D8A8B2"/>
<path d="M93.6616 84.1904L92.728 85.2867L83.1352 77.1174L84.0688 76.0211L93.6616 84.1904ZM86.0892 87.5298L85.622 81.2212L86.3112 81.8554L79.0388 81.9275L80.2292 80.5297L86.9353 80.4009L87.4197 85.9675L86.0892 87.5298Z" fill="#D8A8B2"/>
<path d="M72.33 86.4528C72.9839 86.0501 73.6946 85.831 74.4618 85.7953C75.2291 85.7597 75.974 85.9281 76.6966 86.3005C77.4153 86.6894 78.0263 87.2926 78.5297 88.11C79.0331 88.9275 79.2935 89.7395 79.3111 90.5461C79.3247 91.3692 79.1461 92.1204 78.7753 92.7997C78.4044 93.4791 77.892 94.0201 77.2381 94.4228C76.5841 94.8255 75.8755 95.0364 75.1122 95.0555C74.3386 95.081 73.5925 94.8992 72.8738 94.5103C72.1615 94.1316 71.5536 93.5335 71.0502 92.7161C70.5468 91.8987 70.2832 91.0815 70.2593 90.2647C70.2418 89.4582 70.4216 88.7203 70.7987 88.0512C71.1656 87.3883 71.6761 86.8556 72.33 86.4528ZM73.0379 87.6024C72.6087 87.8666 72.2712 88.2225 72.0253 88.6699C71.7794 89.1173 71.6679 89.6228 71.6909 90.1865C71.7099 90.7666 71.9051 91.3581 72.2763 91.961C72.6476 92.5639 73.0848 92.9992 73.588 93.2672C74.0873 93.5516 74.5952 93.6898 75.1117 93.6818C75.6282 93.6737 76.101 93.5376 76.5302 93.2733C76.9593 93.009 77.2988 92.6449 77.5487 92.181C77.7946 91.7336 77.908 91.2198 77.889 90.6397C77.8762 90.0697 77.6811 89.4782 77.3035 88.8651C76.9323 88.2623 76.497 87.8186 75.9977 87.5342C75.4945 87.2663 74.9827 87.1446 74.4623 87.1691C73.9418 87.1937 73.4671 87.3381 73.0379 87.6024Z" fill="#D8A8B2"/>
<path d="M71.2015 97.5271L69.8404 97.9974L66.9014 89.4908L68.2625 89.0205L71.2015 97.5271ZM66.9729 99.1785C66.5192 99.3353 66.0874 99.4083 65.6774 99.3976C65.2675 99.3869 64.8927 99.2942 64.553 99.1195C64.2133 98.9449 63.9108 98.6939 63.6454 98.3666C63.3839 98.0507 63.1728 97.6602 63.0121 97.1952L61.0489 91.5128L62.4099 91.0426L64.2556 96.3847C64.4829 97.0426 64.8065 97.483 65.2264 97.7062C65.6462 97.9293 66.1624 97.935 66.7749 97.7234C67.2399 97.5628 67.6298 97.2948 67.9445 96.9194C68.2591 96.5441 68.4744 96.1015 68.5903 95.5917C68.6988 95.0972 68.6873 94.5679 68.5559 94.0039L68.9138 94.9848C69.0217 95.4808 69.0572 95.9509 69.0203 96.3954C68.9721 96.8437 68.8645 97.249 68.6977 97.6114C68.5235 97.989 68.2917 98.3103 68.0024 98.5753C67.7017 98.8442 67.3586 99.0453 66.9729 99.1785Z" fill="#D8A8B2"/>
<path d="M55.329 101.766L53.8917 101.677L54.447 92.694L55.8842 92.7828L55.329 101.766ZM50.7905 101.665C50.3114 101.636 49.8847 101.537 49.5103 101.37C49.1359 101.203 48.8255 100.973 48.579 100.681C48.3326 100.389 48.1497 100.041 48.0304 99.6373C47.9103 99.2452 47.8655 98.8036 47.8959 98.3125L48.2667 92.312L49.704 92.4008L49.3553 98.042C49.3124 98.7367 49.4419 99.2677 49.7438 99.635C50.0457 100.002 50.52 100.206 51.1668 100.246C51.6579 100.276 52.1208 100.179 52.5555 99.9531C52.9903 99.7275 53.3591 99.4016 53.6619 98.9755C53.9521 98.5606 54.1449 98.0676 54.2403 97.4964L54.1938 98.5395C54.1029 99.0388 53.955 99.4865 53.7501 99.8827C53.5333 100.278 53.2783 100.611 52.9851 100.881C52.6791 101.163 52.3417 101.371 51.9727 101.504C51.5918 101.637 51.1977 101.691 50.7905 101.665ZM44.754 101.292C44.2749 101.263 43.8482 101.164 43.4738 100.997C43.0994 100.829 42.789 100.6 42.5425 100.308C42.2961 100.016 42.1132 99.6683 41.9939 99.2642C41.8739 98.8721 41.829 98.4305 41.8594 97.9394L42.2303 91.9388L43.6675 92.0277L43.3188 97.6689C43.2759 98.3636 43.4054 98.8946 43.7073 99.2619C44.0092 99.6292 44.4836 99.8329 45.1303 99.8729C45.6214 99.9032 46.0843 99.8056 46.519 99.58C46.9538 99.3544 47.3226 99.0285 47.6255 98.6024C47.9156 98.1875 48.1084 97.6944 48.2038 97.1232L48.1574 98.1664C48.0664 98.6657 47.9185 99.1134 47.7137 99.5095C47.4968 99.9049 47.2418 100.238 46.9486 100.508C46.6426 100.79 46.3052 100.997 45.9362 101.131C45.5553 101.264 45.1613 101.318 44.754 101.292Z" fill="#D8A8B2"/>
<path d="M34.6667 91.9509L33.3958 91.4957C33.6845 90.9745 34.0658 90.5503 34.54 90.223C34.9988 89.9029 35.5289 89.704 36.1303 89.6263C36.7164 89.5558 37.3371 89.6379 37.9923 89.8726C38.7831 90.1558 39.4281 90.5972 39.9272 91.1966C40.4223 91.8073 40.7389 92.507 40.877 93.2958C40.9997 94.0918 40.9094 94.9135 40.6059 95.7607C40.3024 96.608 39.8562 97.3022 39.2673 97.8433C38.667 98.3804 37.9874 98.7297 37.2285 98.8912C36.4696 99.0528 35.7004 98.9939 34.9208 98.7147C34.0962 98.4194 33.4681 97.9841 33.0368 97.409C32.5901 96.8411 32.3587 96.1527 32.3425 95.3439C32.3109 94.5423 32.5075 93.6376 32.9322 92.6298L39.3716 94.9363C39.5134 94.3625 39.5349 93.8221 39.4361 93.315C39.3373 92.808 39.127 92.3631 38.8053 91.9801C38.4795 91.6085 38.0568 91.3297 37.5371 91.1435C36.9609 90.9372 36.4226 90.91 35.922 91.0621C35.406 91.2215 34.9876 91.5177 34.6667 91.9509ZM35.3252 97.4256C36.0257 97.6765 36.6859 97.6835 37.3061 97.4468C37.9263 97.21 38.4409 96.7698 38.8499 96.126L33.8848 94.3476C33.6629 95.1094 33.7035 95.7613 34.0065 96.3032C34.2982 96.841 34.7378 97.2152 35.3252 97.4256Z" fill="#D8A8B2"/>
<path d="M21.3587 83.8306C21.8861 83.299 22.4725 82.9443 23.1181 82.7663C23.7468 82.5903 24.381 82.5717 25.0209 82.7104C25.6533 82.8586 26.2378 83.1448 26.7744 83.5691C27.3768 84.0454 27.8262 84.6379 28.1227 85.3464C28.4191 86.055 28.5162 86.8126 28.414 87.619C28.2949 88.4274 27.9377 89.2082 27.3423 89.9612C26.7468 90.7143 26.0733 91.2373 25.3216 91.5302C24.553 91.8251 23.786 91.9147 23.0207 91.7992C22.2554 91.6836 21.5716 91.3877 20.9691 90.9113C20.4326 90.4871 20.0277 89.9834 19.7545 89.4002C19.4719 88.8096 19.3437 88.1882 19.3699 87.5358C19.3868 86.876 19.5846 86.2293 19.9632 85.5955L20.994 86.4105C20.7298 87.0736 20.6763 87.712 20.8335 88.3258C20.9832 88.949 21.3075 89.4579 21.8064 89.8523C22.2112 90.1724 22.6743 90.3703 23.1957 90.446C23.7172 90.5217 24.2424 90.4475 24.7715 90.2233C25.2932 90.0086 25.7736 89.6235 26.2127 89.0681C26.6443 88.5222 26.9082 87.9659 27.0043 87.3994C27.093 86.8423 27.045 86.3225 26.8605 85.84C26.659 85.3595 26.3513 84.9555 25.9371 84.628C25.3629 84.174 24.7778 83.9562 24.182 83.9746C23.5693 83.995 22.9671 84.2149 22.3754 84.6344L21.3587 83.8306Z" fill="#D8A8B2"/>
<path d="M13.4788 88.6768L12.4982 87.6222L21.7255 79.0422L22.7061 80.0968L13.4788 88.6768Z" fill="#D8A8B2"/>
<path d="M9.48299 83.9577L10.8605 82.8848L12.0108 84.3617L10.6333 85.4346L9.48299 83.9577ZM13.3407 83.052L12.4559 81.916L19.5562 76.3856L20.4411 77.5217L13.3407 83.052Z" fill="#D8A8B2"/>
<path d="M11.6802 69.9536C12.3701 69.6627 13.0474 69.5577 13.7121 69.6387C14.3605 69.7151 14.9542 69.9392 15.4931 70.311C16.0216 70.6887 16.4532 71.1757 16.788 71.7722C17.1639 72.4419 17.3541 73.1608 17.3587 73.9289C17.3632 74.697 17.1648 75.4345 16.7634 76.1414C16.3457 76.8437 15.7183 77.4298 14.8812 77.8997C14.044 78.3696 13.2222 78.597 12.4155 78.5819C11.5926 78.5622 10.8492 78.3533 10.1854 77.9552C9.52164 77.5572 9.00179 77.0233 8.62589 76.3536C8.29109 75.7571 8.1083 75.1373 8.07751 74.494C8.04085 73.8403 8.15876 73.2168 8.43123 72.6235C8.69783 72.0197 9.1268 71.4969 9.71813 71.0549L10.3613 72.2007C9.86467 72.7134 9.57228 73.2835 9.48411 73.9109C9.38548 74.5442 9.49182 75.1382 9.80312 75.6928C10.0557 76.1428 10.4087 76.502 10.8621 76.7704C11.3155 77.0388 11.8295 77.17 12.4041 77.164C12.9682 77.1639 13.559 76.9905 14.1764 76.644C14.7833 76.3033 15.239 75.8893 15.5434 75.4019C15.8373 74.9205 15.9907 74.4215 16.0036 73.9051C16.0002 73.3841 15.8692 72.8934 15.6108 72.433C15.2525 71.7947 14.7943 71.3707 14.2363 71.161C13.6619 70.9467 13.0213 70.9209 12.3145 71.0837L11.6802 69.9536Z" fill="#D8A8B2"/>
<path d="M2.31116 71.0771L1.88218 69.7025L13.9101 65.949L14.3391 67.3236L2.31116 71.0771ZM3.52776 62.8911L9.11245 65.8623L8.20822 66.1067L12.028 59.9178L12.5749 61.6705L9.1054 67.4107L4.13905 64.8499L3.52776 62.8911Z" fill="#D8A8B2"/>
<path d="M11.7957 51.737C11.7839 52.5049 11.5868 53.2219 11.2045 53.8881C10.8221 54.5543 10.2798 55.092 9.57737 55.5012C8.86315 55.8982 8.0261 56.0893 7.06622 56.0745C6.10633 56.0597 5.28158 55.8429 4.59196 55.4242C3.89053 54.9933 3.35302 54.439 2.97945 53.7611C2.60587 53.0833 2.42501 52.3604 2.43686 51.5925C2.44872 50.8246 2.65172 50.1136 3.04587 49.4596C3.4402 48.7936 3.99447 48.2621 4.70868 47.8651C5.4109 47.4679 6.24195 47.2767 7.20184 47.2915C8.16172 47.3064 8.99247 47.5232 9.69409 47.9421C10.3837 48.3608 10.9093 48.909 11.2709 49.5866C11.6327 50.2523 11.8076 50.9691 11.7957 51.737ZM10.4459 51.7161C10.4537 51.2122 10.335 50.7363 10.0899 50.2885C9.84479 49.8406 9.4784 49.4749 8.99072 49.1914C8.49122 48.8956 7.88752 48.7423 7.1796 48.7314C6.47169 48.7204 5.86954 48.8552 5.37315 49.1355C4.86495 49.4037 4.47543 49.7577 4.20461 50.1976C3.93379 50.6375 3.79448 51.1094 3.7867 51.6133C3.77892 52.1173 3.90349 52.5992 4.16042 53.0593C4.40554 53.5071 4.77784 53.8789 5.27733 54.1746C5.76483 54.4702 6.36853 54.6235 7.08845 54.6347C7.79636 54.6456 8.40442 54.517 8.91262 54.2488C9.40901 53.9684 9.78671 53.6022 10.0457 53.1501C10.3047 52.6981 10.4381 52.2201 10.4459 51.7161Z" fill="#D8A8B2"/>
<path d="M3.05692 44.7556L3.39115 43.355L12.1454 45.4439L11.8111 46.8446L3.05692 44.7556ZM3.93467 40.3017C4.04608 39.8349 4.21638 39.4314 4.44558 39.0913C4.67478 38.7512 4.95424 38.4848 5.28398 38.292C5.61372 38.0993 5.98789 37.9789 6.4065 37.9307C6.81344 37.8798 7.25619 37.9114 7.73475 38.0256L13.5826 39.421L13.2483 40.8217L7.75069 39.5098C7.0737 39.3483 6.52835 39.3847 6.11465 39.6191C5.70095 39.8535 5.4189 40.2858 5.2685 40.9161C5.1543 41.3947 5.17102 41.8675 5.31865 42.3345C5.46629 42.8015 5.72401 43.2208 6.09182 43.5923C6.45075 43.9494 6.90338 44.2239 7.44973 44.416L6.43006 44.1912C5.95375 44.0158 5.53806 43.7933 5.18298 43.5235C4.83069 43.242 4.5465 42.9336 4.33043 42.5983C4.10547 42.2486 3.9589 41.8805 3.89072 41.4941C3.82532 41.0961 3.83997 40.6986 3.93467 40.3017Z" fill="#D8A8B2"/>
<path d="M7.82185 29.3759L8.66467 28.2083L15.9621 33.4759L15.1193 34.6435L7.82185 29.3759ZM10.3308 25.5926C10.6117 25.2034 10.923 24.8953 11.2645 24.6682C11.606 24.4411 11.9659 24.3013 12.3442 24.2488C12.7225 24.1963 13.1143 24.2276 13.5197 24.3426C13.9153 24.4506 14.3126 24.6485 14.7115 24.9365L19.5862 28.4553L18.7434 29.6229L14.1606 26.3148C13.5963 25.9074 13.0782 25.7333 12.6064 25.7923C12.1346 25.8513 11.7091 26.1435 11.3298 26.669C11.0418 27.0679 10.8771 27.5114 10.8356 27.9994C10.7941 28.4874 10.8726 28.9733 11.0711 29.4569C11.2668 29.9238 11.5807 30.3502 12.0126 30.736L11.1556 30.1395C10.782 29.7959 10.4825 29.4317 10.2571 29.0469C10.0386 28.6525 9.8934 28.259 9.82143 27.8667C9.74674 27.4576 9.75151 27.0614 9.83573 26.6782C9.92697 26.2853 10.092 25.9234 10.3308 25.5926ZM13.8706 20.6888C14.1516 20.2996 14.4628 19.9914 14.8043 19.7644C15.1458 19.5373 15.5057 19.3975 15.884 19.345C16.2623 19.2925 16.6542 19.3237 17.0595 19.4387C17.4552 19.5467 17.8525 19.7447 18.2514 20.0327L23.126 23.5514L22.2832 24.719L17.7005 21.4109C17.1361 21.0036 16.6181 20.8294 16.1463 20.8884C15.6745 20.9475 15.2489 21.2397 14.8697 21.7651C14.5817 22.164 14.417 22.6075 14.3755 23.0955C14.334 23.5836 14.4125 24.0694 14.6109 24.5531C14.8067 25.02 15.1205 25.4463 15.5524 25.8321L14.6954 25.2357C14.3219 24.892 14.0224 24.5278 13.7969 24.1431C13.5785 23.7486 13.4332 23.3552 13.3613 22.9628C13.2866 22.5537 13.2914 22.1576 13.3756 21.7744C13.4668 21.3814 13.6318 21.0196 13.8706 20.6888Z" fill="#D8A8B2"/>
<path d="M27.0607 17.1726L28.1227 16.3392C28.4102 16.861 28.5662 17.4097 28.5908 17.9853C28.6174 18.5441 28.5035 19.0987 28.2491 19.6492C27.9967 20.1829 27.5968 20.6645 27.0492 21.0942C26.3884 21.6128 25.6715 21.9237 24.8983 22.0271C24.1178 22.121 23.3569 22.0164 22.6157 21.7133C21.8765 21.3934 21.2291 20.8794 20.6735 20.1714C20.1179 19.4634 19.7679 18.7161 19.6234 17.9295C19.4884 17.1354 19.5546 16.3742 19.8219 15.6458C20.0893 14.9174 20.5486 14.2976 21.2 13.7864C21.8891 13.2456 22.5919 12.9457 23.3084 12.8869C24.0269 12.8111 24.7328 12.9817 25.4261 13.3987C26.1214 13.7987 26.7826 14.4468 27.4095 15.3429L22.0286 19.5656C22.4388 19.9912 22.8848 20.2971 23.3666 20.4834C23.8484 20.6697 24.337 20.7286 24.8324 20.6602C25.3204 20.5823 25.7816 20.373 26.2158 20.0322C26.6973 19.6543 27.0069 19.2131 27.1447 18.7083C27.2845 18.1868 27.2565 17.6748 27.0607 17.1726ZM22.0759 14.8151C21.4906 15.2744 21.1331 15.8295 21.0033 16.4805C20.8735 17.1315 20.9722 17.8015 21.2993 18.4905L25.4483 15.2346C24.9216 14.6412 24.3482 14.3285 23.7282 14.2964C23.1175 14.257 22.5668 14.4298 22.0759 14.8151Z" fill="#D8A8B2"/>
<path d="M41.175 10.1147C41.3413 10.8447 41.3267 11.53 41.1312 12.1704C40.943 12.7956 40.6189 13.3411 40.1589 13.8071C39.695 14.2617 39.1402 14.602 38.4946 14.8278C37.7696 15.0813 37.0286 15.1434 36.2715 15.0141C35.5143 14.8848 34.8226 14.5609 34.1964 14.0426C33.5776 13.509 33.1097 12.7891 32.7928 11.8829C32.4759 10.9767 32.3951 10.1278 32.5505 9.3361C32.7132 8.52914 33.0484 7.83351 33.556 7.2492C34.0635 6.6649 34.6798 6.24598 35.4047 5.99245C36.0504 5.76666 36.6926 5.69461 37.3314 5.77633C37.9815 5.85408 38.5749 6.07877 39.1117 6.45041C39.6598 6.81809 40.1 7.33156 40.4322 7.99084L39.1919 8.4246C38.7736 7.84629 38.2631 7.45909 37.6606 7.26299C37.0541 7.05556 36.4507 7.05682 35.8504 7.26678C35.3633 7.43711 34.9481 7.72215 34.6048 8.12188C34.2615 8.52161 34.0428 9.0049 33.9487 9.57176C33.8506 10.1273 33.9184 10.7392 34.1521 11.4075C34.3818 12.0645 34.7102 12.5853 35.1371 12.97C35.56 13.3433 36.0246 13.5812 36.5309 13.6839C37.0445 13.7712 37.5505 13.7277 38.0489 13.5534C38.7399 13.3118 39.2372 12.9345 39.5409 12.4215C39.8519 11.8932 39.9888 11.2669 39.9517 10.5425L41.175 10.1147Z" fill="#D8A8B2"/>
<path d="M41.1554 0.874023L42.5709 0.609636L44.8843 12.9954L43.4688 13.2598L41.1554 0.874023Z" fill="#D8A8B2"/>
<path d="M47.3888 0.000485313L47.5569 1.73838L45.6936 1.91856L45.5255 0.180664L47.3888 0.000485313ZM46.087 3.74316L47.5203 3.60456L48.3866 12.5628L46.9533 12.7014L46.087 3.74316Z" fill="#D8A8B2"/>
<path d="M58.2769 9.36856C58.15 10.1065 57.8733 10.7335 57.4467 11.2497C57.0328 11.7546 56.524 12.1338 55.9203 12.3873C55.3173 12.6288 54.6744 12.7298 53.9916 12.6902C53.2249 12.6458 52.5168 12.4185 51.8675 12.0082C51.2181 11.598 50.7039 11.0333 50.3249 10.3142C49.9585 9.58375 49.8031 8.73935 49.8586 7.78095C49.9141 6.82256 50.1657 6.00775 50.6133 5.33651C51.0735 4.65399 51.6502 4.14049 52.3433 3.79601C53.0364 3.45152 53.7663 3.30149 54.533 3.34591C55.2158 3.38548 55.8365 3.56568 56.3948 3.88652C56.9652 4.20805 57.4268 4.64348 57.7796 5.1928C58.1444 5.74283 58.3535 6.386 58.407 7.12233L57.0952 7.04632C56.9311 6.35167 56.6086 5.79808 56.1277 5.38557C55.6474 4.96108 55.0898 4.73044 54.4549 4.69365C53.9398 4.66381 53.4469 4.76747 52.9764 5.00465C52.5059 5.24183 52.1183 5.60402 51.8136 6.09121C51.5096 6.56642 51.3372 7.15744 51.2962 7.86425C51.2559 8.55909 51.359 9.16606 51.6054 9.68518C51.8525 10.1923 52.19 10.5905 52.618 10.8798C53.0587 11.1577 53.5425 11.312 54.0697 11.3425C54.8004 11.3848 55.4045 11.2275 55.882 10.8705C56.3721 10.5023 56.7391 9.97663 56.9831 9.2936L58.2769 9.36856Z" fill="#D8A8B2"/>
<path d="M62.3535 0.842773L63.7434 1.21942L60.4477 13.3808L59.0579 13.0041L62.3535 0.842773ZM68.6045 6.26659L63.0982 9.38079L63.3778 8.4868L66.5458 15.0333L64.7737 14.5531L61.796 8.54303L66.6239 5.72987L68.6045 6.26659Z" fill="#D8A8B2"/>
<path d="M73.4785 19.1572C72.8367 18.7355 72.3371 18.1847 71.9798 17.5048C71.6224 16.8248 71.4594 16.0787 71.4905 15.2664C71.5384 14.4507 71.8258 13.6417 72.353 12.8394C72.8802 12.0371 73.5054 11.4571 74.2285 11.0995C74.9683 10.7384 75.7245 10.5819 76.497 10.63C77.2694 10.6781 77.9766 10.913 78.6184 11.3348C79.2603 11.7565 79.7516 12.3091 80.0923 12.9924C80.443 13.6824 80.5945 14.4352 80.5467 15.2509C80.5055 16.0567 80.2213 16.8607 79.6941 17.663C79.1669 18.4653 78.5385 19.0503 77.8087 19.4179C77.0855 19.7755 76.341 19.9253 75.5751 19.8671C74.8192 19.8156 74.1204 19.579 73.4785 19.1572ZM74.2199 18.029C74.6411 18.3058 75.1064 18.4608 75.6158 18.494C76.1253 18.5272 76.6304 18.414 77.1313 18.1544C77.6487 17.8913 78.1018 17.4639 78.4906 16.8722C78.8794 16.2805 79.0886 15.7 79.118 15.1307C79.1641 14.5579 79.0742 14.0393 78.8481 13.5748C78.622 13.1104 78.2983 12.7398 77.8771 12.463C77.4559 12.1863 76.9823 12.033 76.4562 12.0032C75.9467 11.97 75.4333 12.0849 74.9158 12.348C74.405 12.601 73.9519 13.0284 73.5565 13.6301C73.1677 14.2218 72.9502 14.804 72.9041 15.3768C72.8746 15.9462 72.9813 16.4613 73.224 16.9223C73.4667 17.3833 73.7986 17.7522 74.2199 18.029Z" fill="#D8A8B2"/>
<path d="M83.9054 15.3837L84.9125 16.413L78.4795 22.7072L77.4725 21.6779L83.9054 15.3837ZM87.2063 18.5C87.542 18.8431 87.7927 19.2022 87.9583 19.5774C88.1239 19.9526 88.2004 20.3311 88.1878 20.7128C88.1751 21.0945 88.0776 21.4753 87.8953 21.8552C87.7215 22.2267 87.4588 22.5844 87.1072 22.9285L82.8099 27.1331L81.8029 26.1038L85.8428 22.151C86.3402 21.6643 86.6001 21.1834 86.6222 20.7084C86.6444 20.2335 86.4288 19.7644 85.9757 19.3012C85.6316 18.9496 85.2226 18.7118 84.7488 18.5878C84.2749 18.4638 83.7828 18.4585 83.2724 18.5717C82.779 18.6851 82.3054 18.9218 81.8518 19.2817L82.5854 18.5388C82.9876 18.2292 83.3975 17.996 83.815 17.8393C84.2409 17.6912 84.6533 17.6151 85.0522 17.611C85.468 17.607 85.8576 17.6792 86.2208 17.8274C86.5925 17.9842 86.921 18.2084 87.2063 18.5Z" fill="#D8A8B2"/>
<path d="M94.5604 27.8658L95.0964 29.2023L86.7433 32.5528L86.2072 31.2163L94.5604 27.8658ZM96.416 32.0088C96.5947 32.4543 96.6887 32.8821 96.698 33.2921C96.7073 33.7021 96.633 34.081 96.4751 34.4287C96.3173 34.7765 96.0813 35.0909 95.7674 35.372C95.4646 35.6486 95.0849 35.8785 94.6283 36.0616L89.0484 38.2997L88.5123 36.9632L93.7581 34.8591C94.4041 34.6 94.8282 34.2554 95.0306 33.8251C95.233 33.3948 95.2135 32.879 94.9723 32.2776C94.7892 31.8209 94.5025 31.4446 94.1122 31.1486C93.722 30.8526 93.2694 30.6592 92.7546 30.5683C92.2554 30.4841 91.7273 30.5214 91.1704 30.6801L92.1326 30.2747C92.6227 30.1428 93.0906 30.0844 93.5363 30.0996C93.9865 30.1259 94.3966 30.2136 94.7666 30.3625C95.1523 30.5181 95.4845 30.734 95.7633 31.01C96.0466 31.2972 96.2641 31.6301 96.416 32.0088ZM98.6675 37.6221C98.8462 38.0676 98.9402 38.4954 98.9495 38.9054C98.9588 39.3154 98.8845 39.6943 98.7266 40.042C98.5687 40.3898 98.3328 40.7042 98.0189 40.9853C97.7161 41.2619 97.3364 41.4918 96.8798 41.6749L91.2999 43.913L90.7638 42.5765L96.0096 40.4724C96.6555 40.2133 97.0797 39.8687 97.2821 39.4384C97.4845 39.0081 97.465 38.4923 97.2238 37.8909C97.0406 37.4342 96.7539 37.0579 96.3637 36.7619C95.9735 36.4659 95.5209 36.2725 95.0061 36.1816C94.5069 36.0974 93.9788 36.1347 93.4218 36.2934L94.3841 35.888C94.8742 35.7561 95.3421 35.6977 95.7878 35.7129C96.2379 35.7392 96.648 35.8269 97.0181 35.9758C97.4037 36.1314 97.736 36.3473 98.0148 36.6233C98.298 36.9105 98.5156 37.2434 98.6675 37.6221Z" fill="#D8A8B2"/>
<path d="M94.5433 50.6069L94.6784 51.9501C94.0837 51.9134 93.5368 51.7514 93.0375 51.4639C92.5513 51.1872 92.1439 50.794 91.8153 50.2843C91.4998 49.7854 91.3072 49.1896 91.2375 48.4971C91.1535 47.6614 91.2748 46.8893 91.6016 46.1811C91.9403 45.4716 92.4361 44.8851 93.0889 44.4214C93.7549 43.9685 94.5357 43.697 95.4312 43.6069C96.3267 43.5168 97.1452 43.6214 97.8869 43.9207C98.6298 44.2319 99.2372 44.6954 99.7092 45.3113C100.181 45.9272 100.459 46.647 100.542 47.4708C100.629 48.3425 100.506 49.0966 100.172 49.7332C99.8513 50.3805 99.3292 50.8853 98.6058 51.2475C97.8955 51.6205 96.9942 51.8318 95.9016 51.8813L95.2171 45.0757C94.6381 45.1942 94.1409 45.4071 93.7255 45.7142C93.3102 46.0213 92.9987 46.4024 92.7912 46.8574C92.5957 47.3113 92.5255 47.8128 92.5808 48.362C92.642 48.971 92.8489 49.4688 93.2013 49.8554C93.5669 50.2528 94.0142 50.5033 94.5433 50.6069ZM99.2037 47.6597C99.1293 46.9194 98.8519 46.3202 98.3716 45.8619C97.8914 45.4037 97.2727 45.1282 96.5156 45.0355L97.0434 50.2831C97.8266 50.156 98.3978 49.8393 98.7569 49.3328C99.1172 48.8383 99.2662 48.2806 99.2037 47.6597Z" fill="#D8A8B2"/>
</svg>
